<svg width="99" height="63" viewBox="0 0 99 63" fill="none" xmlns="http://www.w3.org/2000/svg">
<path d="M9.204 14.58H7.412V22H2.82V2.596H9.176C11.8267 2.596 13.8147 3.08133 15.14 4.052C16.484 5.02267 17.156 6.50667 17.156 8.504C17.156 9.75467 16.8573 10.8 16.26 11.64C15.6627 12.4613 14.72 13.1613 13.432 13.74L18.36 22H13.18L9.204 14.58ZM7.412 11.416H9.344C10.3707 11.416 11.136 11.1827 11.64 10.716C12.1627 10.2493 12.424 9.512 12.424 8.504C12.424 7.57067 12.144 6.88933 11.584 6.46C11.0427 6.03067 10.2027 5.816 9.064 5.816H7.412V11.416ZM32.5711 14.272C32.5711 14.888 32.5431 15.42 32.4871 15.868H23.2751C23.4244 17.1187 23.7791 17.996 24.3391 18.5C24.8991 19.004 25.6738 19.256 26.6631 19.256C27.2604 19.256 27.8391 19.1533 28.3991 18.948C28.9591 18.724 29.5658 18.388 30.2191 17.94L32.0391 20.404C30.3031 21.7853 28.3711 22.476 26.2431 22.476C23.8351 22.476 21.9871 21.7667 20.6991 20.348C19.4111 18.9293 18.7671 17.0253 18.7671 14.636C18.7671 13.124 19.0378 11.7707 19.5791 10.576C20.1204 9.36267 20.9138 8.41067 21.9591 7.72C23.0044 7.01067 24.2551 6.656 25.7111 6.656C27.8578 6.656 29.5378 7.328 30.7511 8.672C31.9644 10.016 32.5711 11.8827 32.5711 14.272ZM28.2311 13.012C28.1938 10.7347 27.3911 9.596 25.8231 9.596C25.0578 9.596 24.4604 9.876 24.0311 10.436C23.6204 10.996 23.3684 11.92 23.2751 13.208H28.2311V13.012ZM43.7643 6.656C45.0523 6.656 46.0603 7.048 46.7883 7.832C47.5163 8.616 47.8803 9.71733 47.8803 11.136V22H43.4563V11.892C43.4563 11.1453 43.335 10.632 43.0923 10.352C42.8683 10.0533 42.523 9.904 42.0563 9.904C41.1603 9.904 40.3016 10.548 39.4803 11.836V22H35.0563V7.132H38.9203L39.2283 8.896C39.863 8.14933 40.5443 7.58933 41.2723 7.216C42.019 6.84267 42.8496 6.656 43.7643 6.656ZM64.5445 1.224V22H60.6245L60.4005 20.264C59.3551 21.7387 57.9458 22.476 56.1725 22.476C54.3245 22.476 52.9151 21.7667 51.9445 20.348C50.9925 18.9293 50.5165 16.988 50.5165 14.524C50.5165 13.012 50.7685 11.6587 51.2725 10.464C51.7765 9.26933 52.4858 8.336 53.4005 7.664C54.3338 6.992 55.3978 6.656 56.5925 6.656C58.0111 6.656 59.1871 7.12267 60.1205 8.056V0.747998L64.5445 1.224ZM57.5445 19.228C58.5711 19.228 59.4298 18.668 60.1205 17.548V11.136C59.7658 10.7067 59.4018 10.3893 59.0285 10.184C58.6738 9.97867 58.2631 9.876 57.7965 9.876C56.9751 9.876 56.3218 10.2587 55.8365 11.024C55.3511 11.7893 55.1085 12.9653 55.1085 14.552C55.1085 16.288 55.3138 17.5013 55.7245 18.192C56.1538 18.8827 56.7605 19.228 57.5445 19.228ZM80.9695 14.272C80.9695 14.888 80.9415 15.42 80.8855 15.868H71.6735C71.8229 17.1187 72.1775 17.996 72.7375 18.5C73.2975 19.004 74.0722 19.256 75.0615 19.256C75.6589 19.256 76.2375 19.1533 76.7975 18.948C77.3575 18.724 77.9642 18.388 78.6175 17.94L80.4375 20.404C78.7015 21.7853 76.7695 22.476 74.6415 22.476C72.2335 22.476 70.3855 21.7667 69.0975 20.348C67.8095 18.9293 67.1655 17.0253 67.1655 14.636C67.1655 13.124 67.4362 11.7707 67.9775 10.576C68.5189 9.36267 69.3122 8.41067 70.3575 7.72C71.4029 7.01067 72.6535 6.656 74.1095 6.656C76.2562 6.656 77.9362 7.328 79.1495 8.672C80.3629 10.016 80.9695 11.8827 80.9695 14.272ZM76.6295 13.012C76.5922 10.7347 75.7895 9.596 74.2215 9.596C73.4562 9.596 72.8589 9.876 72.4295 10.436C72.0189 10.996 71.7669 11.92 71.6735 13.208H76.6295V13.012ZM87.4028 22.476C86.1148 22.476 85.1068 22.112 84.3788 21.384C83.6694 20.6373 83.3148 19.5827 83.3148 18.22V1.224L87.7388 0.747998V18.052C87.7388 18.668 87.9908 18.976 88.4948 18.976C88.7561 18.976 88.9988 18.9293 89.2228 18.836L90.0908 21.972C89.2881 22.308 88.3921 22.476 87.4028 22.476ZM95.7153 22.476C94.4273 22.476 93.4193 22.112 92.6913 21.384C91.9819 20.6373 91.6273 19.5827 91.6273 18.22V1.224L96.0513 0.747998V18.052C96.0513 18.668 96.3033 18.976 96.8073 18.976C97.0686 18.976 97.3113 18.9293 97.5353 18.836L98.4033 21.972C97.6006 22.308 96.7046 22.476 95.7153 22.476ZM13.04 62L12.032 57.828H6.376L5.396 62H0.636L6.488 42.596H12.06L17.912 62H13.04ZM7.16 54.496H11.248L9.204 45.928L7.16 54.496ZM27.3156 46.712C27.857 46.712 28.3516 46.7773 28.7996 46.908L28.0996 51.192C27.5396 51.0613 27.0916 50.996 26.7556 50.996C25.8783 50.996 25.2063 51.304 24.7396 51.92C24.2916 52.5173 23.937 53.4227 23.6756 54.636V62H19.2516V47.132H23.1156L23.4796 50.016C23.8156 48.9893 24.3196 48.1867 24.9916 47.608C25.6823 47.0107 26.457 46.712 27.3156 46.712ZM38.5539 46.712C39.0952 46.712 39.5899 46.7773 40.0379 46.908L39.3379 51.192C38.7779 51.0613 38.3299 50.996 37.9939 50.996C37.1166 50.996 36.4446 51.304 35.9779 51.92C35.5299 52.5173 35.1752 53.4227 34.9139 54.636V62H30.4899V47.132H34.3539L34.7179 50.016C35.0539 48.9893 35.5579 48.1867 36.2299 47.608C36.9206 47.0107 37.6952 46.712 38.5539 46.712ZM54.2722 62H50.4362L50.2402 60.124C49.1575 61.692 47.6549 62.476 45.7322 62.476C44.3695 62.476 43.3335 62.0653 42.6242 61.244C41.9335 60.4227 41.5882 59.2747 41.5882 57.8V47.132H46.0122V57.24C46.0122 57.968 46.1242 58.4813 46.3482 58.78C46.5909 59.06 46.9549 59.2 47.4402 59.2C48.3735 59.2 49.1762 58.6213 49.8482 57.464V47.132H54.2722V62ZM71.0796 41.224V62H67.1596L66.9356 60.264C65.8903 61.7387 64.481 62.476 62.7076 62.476C60.8596 62.476 59.4503 61.7667 58.4796 60.348C57.5276 58.9293 57.0516 56.988 57.0516 54.524C57.0516 53.012 57.3036 51.6587 57.8076 50.464C58.3116 49.2693 59.021 48.336 59.9356 47.664C60.869 46.992 61.933 46.656 63.1276 46.656C64.5463 46.656 65.7223 47.1227 66.6556 48.056V40.748L71.0796 41.224ZM64.0796 59.228C65.1063 59.228 65.965 58.668 66.6556 57.548V51.136C66.301 50.7067 65.937 50.3893 65.5636 50.184C65.209 49.9787 64.7983 49.876 64.3316 49.876C63.5103 49.876 62.857 50.2587 62.3716 51.024C61.8863 51.7893 61.6436 52.9653 61.6436 54.552C61.6436 56.288 61.849 57.5013 62.2596 58.192C62.689 58.8827 63.2956 59.228 64.0796 59.228ZM86.3567 57.688C86.3567 58.248 86.4314 58.6587 86.5807 58.92C86.7487 59.1813 87.01 59.3773 87.3647 59.508L86.4407 62.392C85.526 62.3173 84.7794 62.1213 84.2007 61.804C83.622 61.468 83.174 60.9453 82.8567 60.236C81.886 61.7293 80.3927 62.476 78.3767 62.476C76.902 62.476 75.726 62.0467 74.8487 61.188C73.9714 60.3293 73.5327 59.2093 73.5327 57.828C73.5327 56.204 74.13 54.9627 75.3247 54.104C76.5194 53.2453 78.246 52.816 80.5047 52.816H82.0167V52.172C82.0167 51.2947 81.83 50.6973 81.4567 50.38C81.0834 50.044 80.43 49.876 79.4967 49.876C79.0114 49.876 78.4234 49.9507 77.7327 50.1C77.042 50.2307 76.3327 50.4173 75.6047 50.66L74.5967 47.748C75.53 47.3933 76.482 47.1227 77.4527 46.936C78.442 46.7493 79.3567 46.656 80.1967 46.656C82.3247 46.656 83.8834 47.0947 84.8727 47.972C85.862 48.8493 86.3567 50.1653 86.3567 51.92V57.688ZM79.6647 59.312C80.6727 59.312 81.4567 58.836 82.0167 57.884V55.252H80.9247C79.9167 55.252 79.1607 55.4293 78.6567 55.784C78.1714 56.1387 77.9287 56.6893 77.9287 57.436C77.9287 58.0333 78.078 58.5 78.3767 58.836C78.694 59.1533 79.1234 59.312 79.6647 59.312Z" fill="#171717"/>
</svg>
